<svg width="100" height="100" viewBox="0 0 100 100" fill="none" xmlns="http://www.w3.org/2000/svg">
<g clip-path="url(#clip0_111_5)">
<circle cx="50" cy="50" r="50" fill="#F9F9F9"/>
<path d="M50 100C63.2608 100 75.9785 94.7322 85.3553 85.3553C94.7322 75.9785 100 63.2608 100 50C100 36.7392 94.7322 24.0215 85.3553 14.6447C75.9785 5.26784 63.2608 3.21184e-06 50 4.37114e-06C36.7392 5.53044e-06 24.0215 5.26785 14.6447 14.6447C5.26784 24.0215 -5.53044e-06 36.7392 -4.37114e-06 50C-3.21184e-06 63.2608 5.26784 75.9785 14.6447 85.3553C24.0215 94.7322 36.7392 100 50 100ZM28.125 53.125C27.2962 53.125 26.5013 52.7958 25.9153 52.2097C25.3292 51.6237 25 50.8288 25 50C25 49.1712 25.3292 48.3763 25.9153 47.7903C26.5013 47.2042 27.2962 46.875 28.125 46.875L64.3312 46.875L50.9125 33.4625C50.6219 33.172 50.3915 32.827 50.2342 32.4474C50.077 32.0678 49.996 31.6609 49.996 31.25C49.996 30.8391 50.077 30.4322 50.2342 30.0526C50.3915 29.673 50.6219 29.3281 50.9125 29.0375C51.203 28.747 51.548 28.5165 51.9276 28.3592C52.3072 28.202 52.7141 28.1211 53.125 28.1211C53.5359 28.1211 53.9428 28.202 54.3224 28.3592C54.702 28.5165 55.0469 28.747 55.3375 29.0375L74.0875 47.7875C74.3785 48.0778 74.6094 48.4226 74.7669 48.8023C74.9245 49.182 75.0056 49.589 75.0056 50C75.0056 50.411 74.9245 50.8181 74.767 51.1977C74.6094 51.5774 74.3785 51.9222 74.0875 52.2125L55.3375 70.9625C54.7507 71.5493 53.9548 71.879 53.125 71.879C52.2951 71.879 51.4993 71.5493 50.9125 70.9625C50.3257 70.3757 49.9961 69.5799 49.9961 68.75C49.9961 67.9202 50.3257 67.1243 50.9125 66.5375L64.3312 53.125L28.125 53.125Z" fill="#939393"/>
</g>
<defs>
<clipPath id="clip0_111_5">
<rect width="100" height="100" fill="white" transform="translate(100 100) rotate(180)"/>
</clipPath>
</defs>
</svg>
